<svg id="Layer_1" data-name="Layer 1" xmlns="http://www.w3.org/2000/svg" viewBox="0 0 586.82 139.47"><defs><style>.cls-1,.cls-3{fill:#ff5200;}.cls-1,.cls-2{fill-rule:evenodd;}.cls-2{fill:#00257b;}</style></defs><title>Artboard 1</title><path class="cls-1" d="M209.64,75.7V44.63s-9.27-9.05-36.38-4.64S134.6,68.71,135,89s8.34,42.61,38,49c25.1,5.41,36.52-5.87,36.52-5.87V101.85s-7.57,8.08-18.14,8c-23.24-.14-21.5-20.87-21.5-20.87s-.8-20.88,20.41-21.17C203.09,67.64,209.64,75.7,209.64,75.7Z"/><path class="cls-1" d="M290.72,75.7V44.63s-9.28-9.05-36.39-4.64S215.67,68.71,216,89s8.34,42.61,38,49c25.1,5.41,36.52-5.87,36.52-5.87V101.85s-7.56,8.08-18.14,8C249.21,109.72,251,89,251,89s-.8-20.88,20.4-21.17C284.17,67.64,290.72,75.7,290.72,75.7Z"/><path class="cls-1" d="M91.39,0c.7,2.26,47.55,134.42,48.91,138.16-.56,0-33.93.39-34.3.11S61.78,9.84,58.58,0Z"/><path class="cls-2" d="M78.54,87c-6.33,0-15.63,0-20.64,0H52c.1-.46,7.72-22.6,13.27-38.72C58,27,51.62,8.32,48.93.33L0,138.34H34.3s5.54-15,7.81-22.43c.42-1.35,1-2,2.64-2,11.24.1,30.59.07,43.08.06C85.05,105.89,81.87,96.65,78.54,87Z"/><path class="cls-3" d="M578.11,73.78a8.7,8.7,0,1,1,8.71-8.71,8.72,8.72,0,0,1-8.71,8.71m0-16.32a7.62,7.62,0,1,0,7.62,7.61,7.63,7.63,0,0,0-7.62-7.61"/><path class="cls-3" d="M574.48,69.29V60.13h3.89a6.73,6.73,0,0,1,2.13.25,2.18,2.18,0,0,1,1.07.88,2.69,2.69,0,0,1,.4,1.44,2.46,2.46,0,0,1-.61,1.7,2.91,2.91,0,0,1-1.81.85,4.45,4.45,0,0,1,1,.76,10.65,10.65,0,0,1,1.05,1.49l1.12,1.79H580.5l-1.34-2a12.46,12.46,0,0,0-1-1.34,1.37,1.37,0,0,0-.55-.38,3.06,3.06,0,0,0-.93-.1h-.38v3.82ZM576.33,64h1.37a6.85,6.85,0,0,0,1.66-.11,1,1,0,0,0,.52-.38,1.27,1.27,0,0,0,.18-.69,1.13,1.13,0,0,0-.24-.75,1.15,1.15,0,0,0-.7-.36q-.23,0-1.35,0h-1.44Z"/><path class="cls-1" d="M347.66,115.65c-17.61.26-18.1-20.31-18.1-20.31H397s-1-19.43-4.5-26.9S380.25,38.28,347,38.28s-49.68,23.3-49.68,52,17.46,49,50.89,49,43.9-24.13,43.9-24.13l-25.18-9.73A23.05,23.05,0,0,1,347.66,115.65ZM347,58.83c18.17,0,17.22,17.42,17.22,17.42H329.74S328.79,58.83,347,58.83Z"/><path class="cls-1" d="M472.25,70.3l6.65-23.23s-18-10.55-43-8.36-29.94,15.52-31.3,18.63-3.68,14.46,0,21.56S417.09,94.05,432.62,97s18,7.65,17.52,11.77-5.34,9.47-20.8,5.07-24.59-12.17-24.59-12.17l-6.57,25S421,138.61,440,138.63c19.57,0,24.87-1.2,34.71-11.69,7.83-8.36,11-28.88.52-38.17S440,73.29,440,73.29s-8-2.4-6.37-7.8,15.67-4.14,15.67-4.14S464.87,62.74,472.25,70.3Z"/><path class="cls-1" d="M558.57,70.3l6.65-23.23s-18-10.55-43-8.36-29.94,15.52-31.3,18.63-3.68,14.46,0,21.56S503.41,94.05,518.94,97s18,7.65,17.52,11.77-5.34,9.47-20.8,5.07-24.58-12.17-24.58-12.17l-6.58,25s22.82,11.92,41.83,11.94c19.57,0,24.87-1.2,34.71-11.69,7.83-8.36,11-28.88.52-38.17s-35.25-15.48-35.25-15.48-8-2.4-6.37-7.8,15.67-4.14,15.67-4.14S551.19,62.74,558.57,70.3Z"/></svg>